<svg width="300" height="300" viewBox="0 0 300 300" fill="none" xmlns="http://www.w3.org/2000/svg">
<rect width="300" height="300" rx="20" fill="url(#paint0_linear)"/>
<path d="M96.1008 187.8H37.3008V165.4C53.7008 139.133 65.9674 109.8 74.1008 77.4H102.301C99.7675 88.2 95.8341 99.6667 90.5008 111.8C85.3008 123.8 79.9008 134.667 74.3008 144.4C68.8341 154.133 64.4341 161.133 61.1008 165.4H96.1008V135.2C98.9008 130.133 101.634 124.067 104.301 117C107.101 109.933 109.301 103.533 110.901 97.8H123.501V165.4H139.901V187.8H123.501V217H96.1008V187.8ZM193.834 219.4C180.5 219.4 170.167 214.867 162.834 205.8C155.5 196.6 151.834 182.733 151.834 164.2C151.834 146.067 155.5 132.4 162.834 123.2C170.3 114 180.167 109.4 192.434 109.4C199.5 109.4 205.7 110.667 211.034 113.2C216.5 115.733 220.767 119.333 223.834 124H225.034V72.4H252.434V217H229.034L227.234 203.2H225.834C222.5 208.533 218.034 212.6 212.434 215.4C206.834 218.067 200.634 219.4 193.834 219.4ZM202.634 195.6C217.567 195.6 225.034 185.8 225.034 166.2V163C225.034 143.133 217.567 133.2 202.634 133.2C194.5 133.2 188.7 135.667 185.234 140.6C181.767 145.4 180.034 152.733 180.034 162.6V166.2C180.034 176.067 181.767 183.467 185.234 188.4C188.7 193.2 194.5 195.6 202.634 195.6Z" fill="white"/>
<defs>
<linearGradient id="paint0_linear" x1="3.49246e-07" y1="300" x2="279.5" y2="-1.43122e-06" gradientUnits="userSpaceOnUse">
<stop offset="0.208333" stop-color="#805AD5"/>
<stop offset="1" stop-color="#3182CE"/>
</linearGradient>
</defs>
</svg>
